<svg xmlns="http://www.w3.org/2000/svg" viewBox="0 0 1200 630" role="img" aria-label="PactFuse">
  <defs>
    <radialGradient id="ogA" cx="8%" cy="-8%" r="60%"><stop offset="0" stop-color="#d1b16e" stop-opacity=".14"/><stop offset="100%" stop-color="#d1b16e" stop-opacity="0"/></radialGradient>
    <radialGradient id="ogB" cx="96%" cy="-6%" r="58%"><stop offset="0" stop-color="#6488f4" stop-opacity=".13"/><stop offset="100%" stop-color="#6488f4" stop-opacity="0"/></radialGradient>
    <radialGradient id="ogC" cx="78%" cy="118%" r="55%"><stop offset="0" stop-color="#f1605d" stop-opacity=".08"/><stop offset="100%" stop-color="#f1605d" stop-opacity="0"/></radialGradient>
    <pattern id="ogGrid" width="34" height="34" patternUnits="userSpaceOnUse"><circle cx="1.4" cy="1.4" r="1.4" fill="#edf2f8" fill-opacity=".05"/></pattern>
    <radialGradient id="bg" cx="32%" cy="20%" r="95%"><stop offset="0" stop-color="#1b2433"/><stop offset="55%" stop-color="#0d1118"/><stop offset="100%" stop-color="#080b10"/></radialGradient>
    <radialGradient id="glow" cx="48%" cy="44%" r="56%"><stop offset="0" stop-color="#d1b16e" stop-opacity=".18"/><stop offset="100%" stop-color="#d1b16e" stop-opacity="0"/></radialGradient>
    <linearGradient id="arm" x1="0" y1="1" x2="1" y2="0"><stop offset="0" stop-color="#c69a4f"/><stop offset="1" stop-color="#ecd49a"/></linearGradient>
  </defs>
  <rect width="1200" height="630" fill="#07090d"/>
  <rect width="1200" height="630" fill="url(#ogGrid)"/>
  <rect width="1200" height="630" fill="url(#ogA)"/>
  <rect width="1200" height="630" fill="url(#ogB)"/>
  <rect width="1200" height="630" fill="url(#ogC)"/>

  <!-- the breaker mark -->
  <g transform="translate(96 196) scale(0.93)">
    <rect x="6" y="6" width="244" height="244" rx="58" fill="url(#bg)" stroke="#2c3a4e" stroke-width="2.5"/>
    <rect x="6" y="6" width="244" height="244" rx="58" fill="url(#glow)"/>
    <path d="M40 142 H86" stroke="#9aa7bb" stroke-width="15" stroke-linecap="round"/>
    <path d="M170 142 H216" stroke="#f1605d" stroke-width="15" stroke-linecap="round" stroke-opacity=".42"/>
    <circle cx="86" cy="142" r="13.5" fill="#ecd49a"/>
    <circle cx="170" cy="142" r="13.5" fill="#f1605d"/>
    <path d="M86 142 L158 90" stroke="url(#arm)" stroke-width="22" stroke-linecap="round"/>
    <g stroke="#ff8472" stroke-width="7.5" stroke-linecap="round"><path d="M158 90 l17 -13"/><path d="M158 90 l22 7"/><path d="M158 90 l-3 -23"/></g>
  </g>

  <g font-family="'Helvetica Neue',Arial,'PingFang SC','Hiragino Sans GB',sans-serif">
    <text x="406" y="214" fill="#d1b16e" font-size="22" font-weight="700" letter-spacing="5">COBO AGENTIC WALLET TRACK</text>
    <text x="402" y="320" fill="#edf2f8" font-size="104" font-weight="800" letter-spacing="1">PACTFUSE</text>
    <text x="406" y="382" fill="#aab5c5" font-size="33" font-weight="500">On-chain circuit breaker for agent payments</text>
    <text x="406" y="430" fill="#8492a8" font-size="27" font-weight="500">面向 Agent 支付的链上断路器,付款前熔断不安全来源</text>
    <text x="406" y="540" fill="#627087" font-size="22" font-weight="500" font-family="ui-monospace,Menlo,monospace">Base Sepolia · evidence-backed · keyless live verify</text>
  </g>
</svg>
